<svg width="472" height="94" viewBox="0 0 472 94" fill="none" xmlns="http://www.w3.org/2000/svg">
<g clip-path="url(#clip0_325_477)">
<path d="M51.3799 57.5699H94.1599V59.5699C94.1625 61.3747 93.8093 63.1622 93.1205 64.8303C92.4317 66.4984 91.4208 68.0144 90.1456 69.2915C88.8704 70.5685 87.3559 71.5817 85.6888 72.2729C84.0217 72.9642 82.2346 73.3199 80.4299 73.3199H37.6499V71.3199C37.6473 69.5152 38.0005 67.7277 38.6893 66.0596C39.3781 64.3915 40.3891 62.8755 41.6643 61.5984C42.9395 60.3214 44.4539 59.3082 46.121 58.617C47.7882 57.9257 49.5752 57.5699 51.3799 57.5699Z" fill="white"/>
<path d="M73.7798 37.1899V79.9699C73.7798 83.6114 72.3332 87.1036 69.7584 89.6785C67.1835 92.2534 63.6912 93.6999 60.0498 93.6999H58.0498V50.9199C58.0498 47.282 59.4936 43.7927 62.0641 41.2184C64.6347 38.6441 68.1218 37.1952 71.7598 37.1899H73.7598H73.7798Z" fill="white"/>
<path d="M34.7099 88.91C29.0954 85.7722 23.8293 82.0481 19 77.7999C16.5458 75.6434 14.2592 73.3033 12.16 70.7999C10.0223 68.2803 8.10214 65.584 6.41995 62.7399L5.18995 60.5699L4.11995 58.3499C3.44995 56.8199 2.79995 55.1799 2.28995 53.6099C1.23774 50.3912 0.533714 47.0688 0.18995 43.6999C-0.52479 36.7761 0.592523 29.786 3.42995 23.4299L4.63995 21.0699L5.99995 18.7999L6.07995 18.6599L6.24995 18.4299L6.42995 18.1899L6.77995 17.7099L7.48995 16.7099C8.08995 16.0099 8.70995 15.2699 9.32995 14.5999C11.7948 12.04 14.6174 9.85063 17.7099 8.09995C20.7729 6.33524 24.0589 4.98988 27.4799 4.09995C30.9141 3.20741 34.452 2.77695 38 2.81995C38.8899 2.81995 39.7799 2.89995 40.6699 2.93995L43.1899 3.21995C44.09 3.37995 45.02 3.51995 45.9 3.69995C46.78 3.87995 47.62 4.07995 48.47 4.31995C51.8476 5.25023 55.1061 6.56903 58.18 8.24995C64.2939 11.5845 69.65 16.1506 73.91 21.6599L67.7699 21.2099C70.1228 18.9979 72.7078 17.0466 75.4799 15.3899C78.2367 13.7315 81.172 12.3896 84.2299 11.3899C90.3789 9.31974 96.9283 8.72372 103.35 9.64995C104.16 9.73995 104.95 9.94995 105.75 10.0999C106.55 10.2563 107.342 10.4566 108.12 10.6999L109.29 11.0399L109.44 11.0899H109.51L109.73 11.1599L109.98 11.2599L110.49 11.4499L111.49 11.8399L112 12.0399L112.58 12.3099C113.35 12.6799 114.15 13.0499 114.9 13.4399L117 14.6699C123.859 19.0304 129.092 25.5284 131.89 33.1599C132.973 36.2077 133.6 39.3989 133.75 42.6299V45.0599V45.7299V46.2799L133.63 47.3699C133.409 48.9781 133.075 50.5688 132.63 52.1299C131.773 55.1381 130.544 58.0272 128.97 60.7299C127.44 63.3907 125.64 65.8871 123.6 68.1799C119.538 72.6016 114.868 76.4232 109.73 79.5299C104.708 82.5851 99.5196 85.3594 94.1899 87.8399C99.03 84.5299 103.92 81.3099 108.46 77.7199C113.001 74.2704 117.067 70.2355 120.55 65.7199C122.203 63.481 123.653 61.0981 124.88 58.5999C126.067 56.1511 126.947 53.5648 127.5 50.8999C127.759 49.6135 127.927 48.3102 128 46.9999V45.9099V45.3599V45.1599C128 45.0599 128 45.2399 128 45.1599V44.9999L127.91 42.9999C127.652 40.396 127.008 37.8448 126 35.4299C124.983 33.0008 123.637 30.7229 122 28.6599C119.569 25.5891 116.592 22.9924 113.22 20.9999L111.51 20.0799L109.86 19.3499L109.44 19.1599L108.92 18.9899L107.92 18.6199L107.4 18.4399L107.15 18.3499H107.27H107.21H107.1L106.16 18.1099C105.54 17.9266 104.908 17.783 104.27 17.6799C103.63 17.5799 103 17.4199 102.35 17.3799C97.1372 16.7862 91.8576 17.3846 86.91 19.1299C81.928 20.853 77.3629 23.6022 73.5099 27.1999L70.2099 30.3399L67.3699 26.7499C63.7668 22.1598 59.2865 18.3321 54.1899 15.4899C51.6509 14.0978 48.9686 12.9846 46.1899 12.1699C45.5099 11.9499 44.8099 11.8099 44.1199 11.6299C43.43 11.4499 42.7899 11.3699 42.1199 11.2299L39.88 10.9399C39.18 10.9399 38.47 10.8399 37.77 10.8099C32.0369 10.6503 26.3588 11.9656 21.28 14.6299C18.762 15.9585 16.4483 17.6424 14.41 19.6299L13.09 20.9999L11.67 22.7499L10.46 24.4899L9.38995 26.3699C8.05235 28.938 7.08284 31.6816 6.50995 34.5199C5.92356 37.418 5.68188 40.3752 5.78995 43.3299C5.8739 46.3346 6.27954 49.3217 6.99995 52.2399C7.36995 53.7399 7.79995 55.0999 8.29995 56.5399L9.14995 58.6999L10.1 60.7899C11.4311 63.58 12.9897 66.2557 14.76 68.7899C16.5631 71.3492 18.5235 73.7939 20.6299 76.1099C24.9524 80.7676 29.6626 85.0497 34.7099 88.91Z" fill="white"/>
<path d="M155.77 25.87H151.27V6.45996H165.94V10.06H155.77V25.87ZM155.43 15.2H164.75V18.8H155.43V15.2Z" fill="white"/>
<path d="M165.64 25.87L174.29 6.45996H178.73L187.41 25.87H182.69L175.59 8.72996H177.37L170.24 25.87H165.64ZM170 21.71L171.2 18.3H181.2L182.42 21.71H170Z" fill="white"/>
<path d="M189.43 25.87V6.45995H197.83C199.374 6.41989 200.908 6.70968 202.33 7.30995C203.516 7.81422 204.528 8.6557 205.24 9.72995C205.933 10.8625 206.281 12.1727 206.24 13.5C206.283 14.8148 205.935 16.1127 205.24 17.23C204.53 18.3012 203.517 19.1367 202.33 19.63C200.905 20.219 199.372 20.5018 197.83 20.46H191.93L193.93 18.46V25.83L189.43 25.87ZM193.92 19L191.92 16.9H197.58C198.688 16.9852 199.79 16.6654 200.68 16C201.019 15.6833 201.284 15.2962 201.457 14.866C201.629 14.4358 201.706 13.9729 201.68 13.51C201.709 13.0467 201.633 12.583 201.461 12.1524C201.288 11.7217 201.021 11.3349 200.68 11.02C199.787 10.3621 198.687 10.0464 197.58 10.13H191.92L193.92 7.98995V19ZM201.77 25.88L196.92 18.88H201.72L206.63 25.88H201.77Z" fill="white"/>
<path d="M209.81 25.87V6.45996H213.53L221.79 20.16H219.79L228 6.45996H231.69L231.75 25.87H227.53V12.92H228.31L221.82 23.82H219.82L213.19 12.92H214V25.92L209.81 25.87Z" fill="white"/>
<path d="M233.75 25.87L242.4 6.45996H246.84L255.52 25.87H250.8L243.7 8.72996H245.48L238.35 25.87H233.75ZM238.07 21.71L239.27 18.3H249.27L250.49 21.71H238.07Z" fill="white"/>
<path d="M266.55 26.2C265.127 26.2143 263.713 25.9669 262.38 25.47C261.145 25.0128 260.016 24.3089 259.062 23.4011C258.107 22.4934 257.348 21.4008 256.83 20.19C256.299 18.9239 256.03 17.5631 256.04 16.19C256.031 14.8171 256.3 13.4566 256.83 12.19C257.345 10.9865 258.1 9.90089 259.05 9.00004C260.013 8.08518 261.148 7.37129 262.39 6.90004C263.73 6.40144 265.15 6.15398 266.58 6.17004C268.143 6.14732 269.695 6.44334 271.14 7.04004C272.475 7.6045 273.653 8.48675 274.57 9.61004L271.68 12.27C271.072 11.551 270.318 10.9684 269.47 10.56C268.632 10.1797 267.72 9.98847 266.8 10C265.949 9.99101 265.104 10.1437 264.31 10.45C263.56 10.7251 262.878 11.1582 262.31 11.72C261.744 12.2887 261.305 12.9702 261.02 13.72C260.703 14.5253 260.547 15.3848 260.56 16.25C260.547 17.112 260.704 17.9681 261.02 18.77C261.305 19.5199 261.744 20.2014 262.31 20.77C262.878 21.3319 263.56 21.765 264.31 22.04C265.104 22.3464 265.949 22.4991 266.8 22.49C267.721 22.4985 268.632 22.3039 269.47 21.92C270.321 21.5074 271.075 20.9176 271.68 20.19L274.57 22.85C273.651 23.9741 272.474 24.8592 271.14 25.43C269.679 25.9991 268.116 26.2612 266.55 26.2Z" fill="white"/>
<path d="M277.59 25.87V6.45996H282.08V25.87H277.59Z" fill="white"/>
<path d="M284.14 25.87L292.79 6.45996H297.22L305.9 25.87H301.19L294.09 8.72996H295.87L288.74 25.87H284.14ZM288.46 21.71L289.65 18.3H299.65L300.87 21.71H288.46Z" fill="white"/>
<path d="M254.095 3.19492L252.781 0.00500488L246.836 2.45425L248.15 5.64416L254.095 3.19492Z" fill="white"/>
<path d="M154.33 45.3001V41.4301H165.91V46.4301H164.78L154.33 45.3001ZM168.09 83.7901L178.54 84.8701V88.7401H154.33V84.8701L164.78 83.7901H168.09ZM159.87 63.7901C159.87 56.3701 159.87 48.8801 159.65 41.4701H172.18C172 48.7001 172 56.1901 172 63.7501V66.1201C172 73.8301 172 81.3201 172.22 88.7401H159.65C159.87 81.4601 159.87 73.9801 159.87 66.4201V63.7901ZM183.94 41.4701L189.15 45.5401H165.91V41.4301H191.57L192.07 53.8301H186.07L183.94 41.4701ZM181.94 66.4701H165.91V62.2001H182L181.94 66.4701ZM179.74 63.4701L180.82 56.5701H185V72.7601H180.82L179.74 65.4901V63.4701Z" fill="white"/>
<path d="M206 68.68C209 67.8 214.08 66.46 217.47 65.68V68.68C214.276 69.4055 211.141 70.3681 208.09 71.56C204.83 72.94 202.7 75.36 202.7 78.75C202.7 82.36 204.6 84.03 207.03 84.03C208.41 84.03 209.53 83.45 211.84 81.77L214.73 79.6L215.48 80.6L212.48 83.88C208.99 87.58 206.75 89.8 201.48 89.8C195.92 89.8 192.04 86.52 192.04 80.59C192.06 75.5 194.9 71.89 206 68.68ZM211.48 82.84V64.84C211.48 58.46 210.24 56.58 205.64 56.58C203.358 56.6056 201.091 56.942 198.9 57.58L203.9 54.78L203.38 59.78C203.2 64.57 200.87 66.5 198.1 66.5C195.53 66.5 193.81 65.26 193.25 62.89C193.63 56.89 199.42 52.89 209.79 52.89C219.03 52.89 222.68 56.79 222.68 66.44V82.54C222.68 83.96 223.27 84.64 224.31 84.64C225.06 84.64 225.65 84.25 226.49 83.06L228.4 84.33C226.67 88.26 224.1 89.77 219.73 89.77C214.8 89.77 212.1 87.2 211.48 82.84Z" fill="white"/>
<path d="M234 73.62V69.4C234 65.4 233.93 63.99 233.79 61.11L229.38 60.46V57.63L243.59 52.84L244.82 53.61L245.48 62.46V73.62C245.48 78.08 245.55 85.5 245.69 88.74H233.79C233.93 85.5 234 78.08 234 73.62ZM230 85.39L236.84 84H244.41L251.29 85.44V88.79H230V85.39ZM240.16 64.1H245.56L244.56 66.1C245.83 57.28 250.84 52.88 255.14 52.88C256.661 52.8038 258.154 53.309 259.317 54.2932C260.479 55.2775 261.224 56.667 261.4 58.18C261.24 61.93 259.17 64.06 256.29 64.06C254.11 64.06 252.43 63 250.72 60.73L248.62 57.98L251.52 59.03C248.393 61.5604 246.234 65.0926 245.41 69.03L240.13 68.51L240.16 64.1Z" fill="white"/>
<path d="M267.27 88.7399C267.41 85.4999 267.48 78.0799 267.48 73.6199V69.4499C267.48 65.4499 267.48 63.9899 267.27 61.1099L262.86 60.4599V57.6299L277.07 52.8399L278.3 53.6099L278.96 61.6099V73.6099C278.96 78.0699 279.03 85.4899 279.17 88.7299L267.27 88.7399ZM282.45 85.3899V88.7399H263.5V85.3899L270.17 83.9999H275.66L282.45 85.3899ZM300.35 65.2199V73.6199C300.35 78.2199 300.42 85.4999 300.57 88.7399H288.87C289.01 85.4999 289.09 78.2199 289.09 73.6199V66.6799C289.09 61.6799 288.09 59.7999 284.91 59.7999C281.73 59.7999 278.52 62.3799 276.36 65.0799H273.7V60.4399H278.2L276.04 62.4399C280.42 55.9799 284.56 52.8199 290.04 52.8199C296.83 52.8399 300.35 56.9199 300.35 65.2199ZM297.21 83.9999L303.84 85.4399V88.7899H285.26V85.3899L291.62 83.9999H297.21ZM321.64 65.6299V73.6299C321.64 78.2299 321.71 85.5099 321.86 88.7499H310.16C310.3 85.5099 310.38 78.2299 310.38 73.6299V66.6299C310.38 61.2199 309.23 59.7899 306.28 59.7899C303.33 59.7899 300.28 61.7899 297.54 65.0699H295V60.2699H300.09L297.14 62.4499C302.23 54.9899 306.26 52.8299 311.14 52.8299C318.41 52.8399 321.64 56.9999 321.64 65.5799V65.6299ZM318.56 83.9999L325.34 85.4399V88.7899H306.81V85.3899L312.81 83.9499L318.56 83.9999Z" fill="white"/>
<path d="M369.93 85.88C364.985 88.7583 359.34 90.2119 353.62 90.08C338.8 90.08 328.7 80.7 328.7 64.98C328.7 49.83 338.15 40.09 354.48 40.09C359.327 40.0626 364.11 41.194 368.43 43.39L368.72 54.61H363.13L360.61 43.17L365.61 44.17V48C362.08 45.23 359.06 44.17 355.91 44.17C348.11 44.17 341.47 50.66 341.47 64.99C341.47 79.32 347.83 85.99 355.79 85.99C358.79 85.99 360.84 85.16 363.96 83.45L358.48 88.08V82.61C358.48 76.77 358.41 71.31 358.26 65.42H370.16C370.02 71.19 369.95 76.89 369.95 82.87L369.93 85.88ZM351.85 69.29V65.42H373.79V69.29L365.35 70.43H360.64L351.85 69.29Z" fill="white"/>
<path d="M410.37 68.05C410.4 69.3516 410.265 70.6519 409.97 71.92H381.79V68.12H395.29C398.75 68.12 399.64 66.83 399.64 63.62C399.64 58.89 397.38 56.55 394.77 56.55C391.77 56.55 389.04 59.81 389.04 70.21C389 79 393.39 83 398.77 83C400.417 83.0121 402.047 82.6732 403.552 82.0059C405.057 81.3386 406.403 80.3581 407.5 79.13L410 81.42C407 87.06 401.86 89.83 394.9 89.83C384.4 89.83 377 83 377 71.36C377 59.36 386.25 52.84 395.54 52.84C405 52.84 410.37 59.33 410.37 68.05Z" fill="white"/>
<path d="M414.58 86.52L414.76 77.69H420.55L422.18 87.33L418.13 85.93V83C421.28 84.89 423.8 85.9 427.13 85.9C431.28 85.9 433.56 84.55 433.56 81.66C433.56 79.39 432.23 77.91 427.48 76.51L423.6 75.39C418 73.72 414.9 70 414.9 64.61C414.9 57.98 420.23 52.84 429.9 52.84C433.884 52.8502 437.804 53.8465 441.31 55.74L440.82 63.64H435.04L433 54.75L437 56.48V59.13C434.889 57.5357 432.294 56.7165 429.65 56.81C426.44 56.81 424.29 58.23 424.29 60.81C424.29 62.81 425.36 64.18 430.29 65.67L433.8 66.67C440.64 68.67 443.37 72.46 443.37 77.81C443.37 85.42 437.24 89.81 427.08 89.81C422.691 89.8802 418.366 88.742 414.58 86.52Z" fill="white"/>
<path d="M465.74 83.94C467.187 83.8669 468.567 83.3025 469.65 82.34L471.41 84.08C469.51 87.73 466.14 89.83 460.88 89.83C454.35 89.83 450.53 86.93 450.53 79.83C450.53 77.32 450.6 75.4 450.6 72.59V58.87H446V54.58L454.52 53.48L450.39 56.38L454.94 43.83H462.29L462.13 56.83V79C462.08 82.41 463.61 83.94 465.74 83.94ZM469.62 53.94V58.88H456.39V53.93L469.62 53.94Z" fill="white"/>
</g>
<defs>
<clipPath id="clip0_325_477">
<rect width="471.41" height="93.7" fill="white"/>
</clipPath>
</defs>
</svg>
